<svg width="19" height="18" viewBox="0 0 19 18" fill="none" xmlns="http://www.w3.org/2000/svg">
<path fill-rule="evenodd" clip-rule="evenodd" d="M9.00714 18C13.9818 18 18.0143 13.9707 18.0143 9C18.0143 4.02931 13.9818 0 9.00714 0V2.03226L9.75859 2.78311C9.98558 3.00992 9.98558 3.37754 9.75859 3.60435L9.58825 3.77419L9.21271 4.14944C9.09939 4.26266 9.09939 4.44665 9.21271 4.55988L9.38305 4.73008C9.49636 4.84331 9.49636 5.0273 9.38305 5.14052L9.09249 5.43085C9.06757 5.4557 9.03861 5.47557 9.00714 5.48983V10.1609H10.8507C11.1591 10.1609 11.4543 10.2832 11.6726 10.501L12.1698 10.9978C12.3775 11.2054 12.4942 11.487 12.4941 11.7806C12.4941 12.003 12.45 12.2233 12.3645 12.4287C12.279 12.6341 12.1537 12.8205 11.9958 12.9774C11.8542 13.1182 11.7057 13.2659 11.5851 13.3868C11.4765 13.4956 11.3998 13.6299 11.361 13.7754C11.3468 13.8284 11.3334 13.8815 11.32 13.9346C11.2813 14.0874 11.2427 14.2398 11.1877 14.3877L10.5562 16.0879C10.0564 16.1967 9.53922 16.2581 9.00714 16.2581V18ZM14.6312 9.30048C14.7514 9.48085 14.9348 9.60968 15.1451 9.6623L16.2049 9.92686C16.2441 9.62274 16.271 9.31464 16.271 9C16.271 7.83399 15.9877 6.73512 15.4966 5.75819L15.0252 5.99371C14.8894 6.06121 14.7739 6.16355 14.6896 6.28948L13.9781 7.35569C13.8826 7.49868 13.8316 7.66677 13.8316 7.83871C13.8316 8.01065 13.8826 8.17874 13.9781 8.32173L14.6312 9.30048Z" fill="#FFC107"/>
<path d="M9.00714 0C4.03251 0 0 4.02931 0 9C0 13.9707 4.03251 18 9.00714 18V16.2581V15.2644C9.06852 14.8065 8.72966 13.9485 8.18524 13.4046C7.96733 13.1868 7.84493 12.8914 7.84493 12.5833V11.4217C7.84493 10.9992 7.61721 10.6109 7.24712 10.4066C6.72521 10.1181 5.98285 9.71492 5.47438 9.45907C5.05744 9.24931 4.67173 8.98222 4.32488 8.66976L4.29583 8.64363C4.04779 8.41991 3.82757 8.16721 3.6399 7.89097C3.29923 7.39125 2.74427 6.56927 2.38362 6.03508C3.12708 4.38387 4.46689 3.05782 6.13176 2.33746L7.00378 2.77331C7.39022 2.96637 7.84493 2.68585 7.84493 2.25399V1.84391C8.13512 1.7971 8.43039 1.76734 8.73075 1.75609L9.00714 2.03226V0Z" fill="#0D47A1"/>
<path d="M8.88693 5.51577H8.56042C8.48487 5.51577 8.41224 5.54516 8.35776 5.59815L7.99747 5.94835C7.95331 5.99132 7.92395 6.0472 7.91364 6.10793C7.90332 6.16865 7.91258 6.23108 7.94009 6.28621L8.5063 7.41811C8.60291 7.61117 8.46236 7.83835 8.24662 7.83835H8.04178C7.97168 7.83835 7.90413 7.81294 7.85147 7.76722L7.51443 7.47472C7.43816 7.4086 7.34598 7.36346 7.24695 7.34374C7.14793 7.32401 7.04548 7.33038 6.94966 7.36222L5.8176 7.73927C5.73117 7.76807 5.656 7.82331 5.60274 7.89717C5.54949 7.97104 5.52084 8.05977 5.52087 8.15081C5.52087 8.3152 5.61385 8.46508 5.76094 8.53875L6.16336 8.7398C6.50512 8.91073 6.88211 8.99964 7.26419 8.99964C7.48218 8.99964 7.7185 9.32203 7.94475 9.63067C8.11504 9.86299 8.27963 10.0875 8.4264 10.1609H9.00714V5.48983C8.96973 5.50678 8.92879 5.51578 8.88693 5.51577Z" fill="#0D47A1"/>
</svg>
