<svg width="160" height="112" viewBox="0 0 160 112" fill="none" xmlns="http://www.w3.org/2000/svg">
<path fill-rule="evenodd" clip-rule="evenodd" d="M3 0.5H80H157L83.5355 73.9645C81.5829 75.9171 78.4171 75.9171 76.4645 73.9645L3 0.5ZM0 3.5V106.5C0 109.261 2.23858 111.5 5 111.5H80H155C157.761 111.5 160 109.261 160 106.5V3.5L83.5355 79.9645C81.5829 81.9171 78.4171 81.9171 76.4645 79.9645L0 3.5Z" fill="white"/>
<path d="M3 0.5C1.34315 0.5 0 1.84315 0 3.5L76.4645 79.9645C78.4171 81.9171 81.5829 81.9171 83.5355 79.9645L160 3.5C160 1.84315 158.657 0.5 157 0.5L83.5355 73.9645C81.5829 75.9171 78.4171 75.9171 76.4645 73.9645L3 0.5Z" fill="#B0BEC5"/>
</svg>
