<svg width="32" height="31" viewBox="0 0 32 31" fill="none" xmlns="http://www.w3.org/2000/svg">
<path fill-rule="evenodd" clip-rule="evenodd" d="M32 0H0V31H32V0ZM11 11L16 1.5L20.5 11L30 12.5L23.5 19.5L24.5 29.5L16 25.5L7.5 29.5L8.5 19.5L2 12.5L11 11Z" fill="white"/>
<path d="M24.3837 29.9934L24.3574 29.9921L24.3311 29.9923C24.2603 29.9926 24.1883 29.9754 24.1204 29.9395L16.4591 25.7285L15.9775 25.4638L15.4958 25.7285L7.82939 29.9423L7.82776 29.9432C7.74782 29.9873 7.66172 30.0052 7.5781 29.9987C7.49436 29.9922 7.40931 29.961 7.33317 29.9026L6.72432 30.6959L7.33317 29.9026C7.25652 29.8437 7.19106 29.7586 7.15052 29.6527C7.10989 29.5464 7.09786 29.4281 7.11739 29.3126L7.1174 29.3126L8.62061 20.4273L8.70571 19.9243L8.34846 19.5602L2.16126 13.2535C2.09474 13.1825 2.04332 13.0894 2.01768 12.9817C1.99226 12.875 1.99435 12.7626 2.02331 12.6576C2.05781 12.5518 2.11723 12.4639 2.18941 12.4003L1.5282 11.6501L2.18941 12.4003C2.26307 12.3354 2.34719 12.2979 2.43078 12.2854L2.43431 12.2849L11.0026 10.9749L11.5318 10.8941L11.7579 10.4088L15.531 2.31269L15.531 2.31269L15.5326 2.30917C15.5796 2.20726 15.6497 2.12836 15.7288 2.07632C15.8074 2.02464 15.8934 2 15.9775 2C16.0615 2 16.1475 2.02464 16.2261 2.07632C16.3052 2.12836 16.3753 2.20727 16.4223 2.30917L16.4223 2.30918L16.4262 2.31751L20.2444 10.3979L20.4716 10.8788L20.9974 10.9592L29.5657 12.2691L29.5692 12.2696C29.6528 12.2821 29.7369 12.3196 29.8106 12.3845C29.8828 12.4481 29.9422 12.536 29.9767 12.6418C30.0057 12.7468 30.0077 12.8592 29.9823 12.9659C29.9567 13.0736 29.9052 13.1668 29.8387 13.2378L23.6515 19.5444L23.2943 19.9086L23.3794 20.4115L24.8826 29.2968L24.8825 29.2968L24.8846 29.3084C24.9059 29.4259 24.8945 29.5468 24.8531 29.6553C24.8127 29.7616 24.7471 29.8468 24.6704 29.9058C24.581 29.9701 24.4806 29.9981 24.3837 29.9934Z" stroke="#FFC107" stroke-width="2"/>
</svg>
