<svg width="128" height="24" viewBox="0 0 128 24" fill="none" xmlns="http://www.w3.org/2000/svg">
<path fill-rule="evenodd" clip-rule="evenodd" d="M11.9786 24C18.5943 24 23.9571 18.6276 23.9571 12C23.9571 5.37242 18.5943 0 11.9786 0V2.70968L12.9779 3.71081C13.2798 4.01323 13.2798 4.50339 12.9779 4.80581L12.7514 5.03226L12.252 5.53258C12.1013 5.68355 12.1013 5.92887 12.252 6.07984L12.4785 6.30677C12.6292 6.45774 12.6292 6.70306 12.4785 6.85403L12.0921 7.24113C12.0589 7.27427 12.0204 7.30076 11.9786 7.31977V13.5479H14.4303C14.8404 13.5479 15.2331 13.711 15.5234 14.0013L16.1846 14.6637C16.4608 14.9405 16.616 15.316 16.6159 15.7074C16.6158 16.004 16.5572 16.2977 16.4435 16.5716C16.3298 16.8454 16.1632 17.0941 15.9532 17.3032C15.7649 17.491 15.5673 17.6879 15.407 17.849C15.2625 17.9942 15.1606 18.1732 15.1089 18.3673C15.0901 18.4379 15.0722 18.5087 15.0544 18.5795C15.003 18.7832 14.9517 18.9864 14.8785 19.1835L14.0386 21.4505C13.374 21.5956 12.6862 21.6774 11.9786 21.6774V24ZM19.4579 12.4006C19.6178 12.6411 19.8617 12.8129 20.1414 12.8831L21.5508 13.2358C21.603 12.8303 21.6387 12.4195 21.6387 12C21.6387 10.4453 21.262 8.98016 20.6089 7.67758L19.982 7.99161C19.8013 8.08161 19.6478 8.21806 19.5357 8.38597L18.5895 9.80758C18.4624 9.99824 18.3946 10.2224 18.3946 10.4516C18.3946 10.6809 18.4624 10.905 18.5895 11.0956L19.4579 12.4006Z" fill="#FFC107"/>
<path d="M30.4514 6.09231H27.9082V3.87692H35.4271V6.09231H32.8839V19.3846H30.4514V6.09231Z" fill="white"/>
<path d="M11.9786 0C5.36283 0 0 5.37242 0 12C0 18.6276 5.36283 24 11.9786 24V21.6774V20.3526C12.0602 19.7419 11.6096 18.5981 10.8855 17.8727C10.5957 17.5824 10.4329 17.1885 10.4329 16.7777V15.2289C10.4329 14.6656 10.1301 14.1479 9.63792 13.8755C8.94384 13.4908 7.95657 12.9532 7.28036 12.6121C6.72587 12.3324 6.21292 11.9763 5.75165 11.5597L5.71301 11.5248C5.38314 11.2265 5.09027 10.8896 4.84069 10.5213C4.38763 9.855 3.6496 8.75903 3.16997 8.04677C4.15869 5.84516 5.9405 4.0771 8.1546 3.11661L9.31431 3.69774C9.82822 3.95516 10.4329 3.58113 10.4329 3.00532V2.45855C10.8189 2.39613 11.2116 2.35645 11.611 2.34145L11.9786 2.70968V0Z" fill="#0D47A1"/>
<path fill-rule="evenodd" clip-rule="evenodd" d="M42.9516 4.76308C42.3767 4.17231 41.4626 3.87692 40.2095 3.87692H36.6048V19.3846H39.0374V12.7385H39.8778C40.438 12.7385 40.8287 12.8788 41.0498 13.1594C41.2857 13.44 41.4036 13.9348 41.4036 14.6437V17.4794C41.4036 18.0554 41.4184 18.4542 41.4479 18.6757C41.4774 18.8972 41.5363 19.1335 41.6248 19.3846H44.1016C43.9836 19.1188 43.9099 18.8529 43.8804 18.5871C43.851 18.3065 43.8362 17.9446 43.8362 17.5015V14.7766C43.8362 13.8609 43.7109 13.1298 43.4603 12.5834C43.2244 12.0369 42.8116 11.6751 42.2219 11.4978V11.4535C43.2834 11.0252 43.8141 10.0062 43.8141 8.39631V7.44369C43.8141 6.23261 43.5266 5.33908 42.9516 4.76308ZM53.2198 19.3846L50.6987 3.87692H47.4037L44.8827 19.3846H47.1383L47.5806 16.3495H50.3449V16.3052L50.7872 19.3846H53.2198ZM57.1792 15.9065L55.587 3.87692H53.1323L55.4765 19.3846H58.7051L61.0492 3.87692H58.8157L57.2235 15.9065H57.1792ZM78.3397 18.6092C78.9441 19.2738 79.8361 19.6062 81.0155 19.6062C82.2097 19.6062 83.1164 19.2665 83.7356 18.5871C84.3695 17.9077 84.6865 16.9329 84.6865 15.6628C84.6865 14.688 84.4948 13.8388 84.1115 13.1151C83.7282 12.3914 83.0279 11.5865 82.0107 10.7003C81.2145 10.0062 80.6617 9.41538 80.3521 8.928C80.0572 8.44062 79.9098 7.91631 79.9098 7.35508C79.9098 6.36554 80.3152 5.87077 81.1261 5.87077C81.5241 5.87077 81.8264 5.99631 82.0328 6.24738C82.2392 6.48369 82.3424 6.86769 82.3424 7.39938V8.19692H84.6423V7.55446C84.6423 6.29908 84.34 5.33908 83.7356 4.67446C83.1459 3.99508 82.2687 3.65538 81.104 3.65538C79.9245 3.65538 79.0252 3.99508 78.406 4.67446C77.7868 5.33908 77.4772 6.28431 77.4772 7.51015C77.4772 8.41108 77.6763 9.22338 78.0743 9.94708C78.4724 10.656 79.1727 11.4535 80.1752 12.3397C80.9713 13.0338 81.5168 13.632 81.8116 14.1342C82.1065 14.6215 82.2539 15.1902 82.2539 15.84C82.2539 16.3865 82.1433 16.7852 81.9222 17.0363C81.7158 17.2726 81.4062 17.3908 80.9934 17.3908C80.1531 17.3908 79.7329 16.8886 79.7329 15.8843V14.8209H77.433V15.7071C77.433 16.9625 77.7352 17.9298 78.3397 18.6092ZM92.3838 4.85169C91.7794 4.20185 90.8727 3.87692 89.6638 3.87692H86.0812V19.3846H88.5138V13.0708H89.6638C90.8727 13.0708 91.7794 12.7458 92.3838 12.096C92.9883 11.4462 93.2905 10.4935 93.2905 9.23815V7.70954C93.2905 6.45415 92.9883 5.50154 92.3838 4.85169ZM118.278 4.76308C117.703 4.17231 116.789 3.87692 115.536 3.87692H111.932V19.3846H114.364V12.7385H115.205C115.765 12.7385 116.155 12.8788 116.377 13.1594C116.612 13.44 116.73 13.9348 116.73 14.6437V17.4794C116.73 18.0554 116.745 18.4542 116.775 18.6757C116.804 18.8972 116.863 19.1335 116.952 19.3846H119.428C119.31 19.1188 119.237 18.8529 119.207 18.5871C119.178 18.3065 119.163 17.9446 119.163 17.5015V14.7766C119.163 13.8609 119.038 13.1298 118.787 12.5834C118.551 12.0369 118.138 11.6751 117.549 11.4978V11.4535C118.61 11.0252 119.141 10.0062 119.141 8.39631V7.44369C119.141 6.23261 118.853 5.33908 118.278 4.76308ZM41.0056 10.1465C40.7697 10.3975 40.4085 10.5231 39.922 10.5231H39.0374V6.09231H40.1431C40.5707 6.09231 40.8803 6.21785 41.0719 6.46892C41.2783 6.72 41.3815 7.12615 41.3815 7.68738V8.88369C41.3815 9.47446 41.2562 9.89538 41.0056 10.1465ZM50.0574 14.2449L48.9738 6.57969H48.9296L47.8681 14.2449H50.0574ZM90.5483 10.5231C90.3567 10.7446 90.0618 10.8554 89.6638 10.8554H88.5138V6.09231H89.6638C90.0618 6.09231 90.3567 6.20308 90.5483 6.42461C90.7547 6.64615 90.8579 7.02277 90.8579 7.55446V9.39323C90.8579 9.92492 90.7547 10.3015 90.5483 10.5231ZM115.249 10.5231C115.735 10.5231 116.096 10.3975 116.332 10.1465C116.583 9.89538 116.708 9.47446 116.708 8.88369V7.68738C116.708 7.12615 116.605 6.72 116.399 6.46892C116.207 6.21785 115.897 6.09231 115.47 6.09231H114.364V10.5231H115.249ZM68.852 3.87692H62.2177V19.3846H68.852V17.1692H64.6503V12.4062H67.9895V10.1908H64.6503V6.09231H68.852V3.87692ZM72.684 3.87692H70.2514V19.3846H76.6866V17.1692H72.684V3.87692ZM97.0442 3.87692H94.6116V19.3846H97.0442V12.4062H99.6537V19.3846H102.086V3.87692H99.6537V10.1908H97.0442V3.87692ZM110.532 3.87692H103.898V19.3846H110.532V17.1692H106.33V12.4062H109.67V10.1908H106.33V6.09231H110.532V3.87692ZM127.485 3.87692H120.851V19.3846H127.485V17.1692H123.283V12.4062H126.623V10.1908H123.283V6.09231H127.485V3.87692Z" fill="white"/>
<path d="M11.8187 7.35435H11.3845C11.284 7.35435 11.1874 7.39355 11.115 7.46419L10.6358 7.93113C10.5771 7.98842 10.538 8.06293 10.5243 8.1439C10.5106 8.22487 10.5229 8.30811 10.5595 8.38161L11.3125 9.89081C11.441 10.1482 11.2541 10.4511 10.9672 10.4511H10.6947C10.6015 10.4511 10.5117 10.4173 10.4416 10.3563L9.99341 9.96629C9.89198 9.87814 9.76939 9.81795 9.6377 9.79165C9.50601 9.76535 9.36976 9.77384 9.24234 9.81629L7.7368 10.319C7.62186 10.3574 7.5219 10.4311 7.45107 10.5296C7.38025 10.628 7.34215 10.7464 7.34219 10.8677C7.34219 11.0869 7.46584 11.2868 7.66145 11.385L8.19663 11.6531C8.65114 11.881 9.1525 11.9995 9.66062 11.9995C9.95053 11.9995 10.2648 12.4294 10.5657 12.8409C10.7922 13.1507 11.0111 13.45 11.2062 13.5479H11.9786V7.31977C11.9288 7.34237 11.8744 7.35438 11.8187 7.35435Z" fill="#0D47A1"/>
</svg>
